<svg xmlns="http://www.w3.org/2000/svg" width="150" height="36" fill="none"><path fill="#97A39D" d="M0 9.6h5.6v6h.1C6.6 13.8 9.1 9 15 9c4.6 0 6.6 3.7 6.6 7.4v18.7H16v-16c0-3.2-.5-6-3.3-6-5.5 0-7.1 8.3-7.1 11.4v10.6H0V9.6ZM48 9.6h5.4L57.8 28l5.3-18.4h4L72.6 28h.1l4.1-18.4h4.8L75.4 35h-4.9L65 17.8h-.1l-5 17.3H55L48 9.6ZM133.3 14.6c-1.9-1.2-4-2.5-6.6-2.5-1.8 0-3.8.7-3.8 2.7 0 4.6 12 5 12 13.2 0 5.4-4.3 7.7-10 7.7-3.3 0-5.7-.7-7-1.1v-5c1.6 1 4.2 2.7 7.3 2.7 3.1 0 4.6-1.6 4.6-3.2 0-4.6-12-5.5-12-12.8 0-3.8 2.7-7.3 9.3-7.3 2.8 0 5.3.7 6.2 1v4.6ZM150 35.3a18 18 0 0 1-3.9.4c-5.3 0-8.3-1.6-8.3-6.5V3.6l5.6-3.3v9.3h5v2.8h-5V27c0 3.7.4 5.5 4 5.5a7 7 0 0 0 2.6-.4v3.1ZM88 35.1V16.8h.1c.2-1.6 1.2-5.6 5.4-5.6V9C85 9 82.3 14 82.3 21.2v14H88ZM99.7 19.7v-.2l.1-2.7c.2-1.6 1.1-5.6 5.3-5.6 3.8 0 4.7 3.3 4.9 5.3h-4c-2.7 0-4 2.1-4.2 3h13.7c0-5-1.6-10.5-10.2-10.5-8.5 0-11.2 5.1-11.2 12.2 0 10.3 5.8 14.5 13.2 14.5a19 19 0 0 0 7.7-1.4v-2.5a12 12 0 0 1-5 1c-7.9 0-10.3-8-10.3-13.1"/><path fill="#DB6F16" d="M46.6 29.5h-15s-7.1 0-8 5.6h14.9s7 0 8-5.6ZM46.6 19.6h-15s-7.1 0-8 5.5h14.9s7 0 8-5.5ZM46.6 9.6h-15s-7.1 0-8 5.5h14.9s7 0 8-5.5Z"/></svg>